# Blender 4.2.0
# www.blender.org
mtllib eye monster.mtl
o eyemon_low
v 13.437542 6.621742 15.721090
v 9.458840 -8.327087 13.292830
v 11.467698 3.785197 14.392323
v 4.658076 11.747224 13.947313
v 5.778980 14.925661 14.484947
v 0.516832 -12.955017 -14.794434
v 10.853457 -11.333855 13.943377
v 4.208677 -17.005146 11.948287
v 10.391315 -11.583329 -15.437321
v 13.888981 -15.120144 -13.159798
v 6.461250 -12.262659 -5.434544
v 5.425664 -14.022698 0.818045
v 8.818229 -17.239582 -4.713448
v 14.844956 -16.392153 -0.448944
v 0.263792 -13.662123 12.675960
v 9.334100 -5.218089 -18.848322
v 17.247198 14.322048 -7.174434
v 24.480032 0.397251 3.011333
v 25.021069 7.133414 -3.030350
v 1.570423 19.161825 -6.736733
v 24.743679 -7.646215 -10.523856
v 16.225115 -7.067147 -22.815170
v 13.868622 -15.528543 -34.163059
v 16.345654 -31.514498 -22.532940
v 10.394759 -11.847640 -31.648874
v 11.451784 -23.310658 -19.188992
v 8.787688 -15.947833 -25.753536
v 13.586763 -21.352587 -17.031265
v 19.913271 -14.216286 -24.873640
v 14.493084 -14.487423 -20.651373
v 17.067333 -23.974457 -6.628936
v 19.216101 -23.937395 -19.607862
v 21.049215 -28.846439 -7.261930
v 14.372190 -30.433916 -3.541054
v 24.577448 -34.949974 30.610699
v 25.267244 -32.618168 18.945139
v 31.286480 -34.457306 24.064116
v 23.402882 -25.922041 13.705693
v 29.107437 -34.045151 15.472555
v 15.349818 -31.383776 24.559505
v 18.225645 -32.435081 21.599379
v 15.820434 -25.084555 13.259792
v 6.672669 -31.128706 12.593209
v 16.735985 -34.481777 2.298146
v -11.145430 9.104380 15.693002
v -7.948164 8.050131 14.558585
v -10.790831 3.459186 14.352475
v -4.683833 10.801840 14.563341
v -6.411551 -18.599827 0.868098
v -8.766345 15.989215 10.493685
v 1.397932 -20.906435 4.258439
v -19.345158 5.626624 8.377970
v -11.891173 17.723751 -3.297334
v -22.064560 9.780196 -2.461102
v 0.856405 10.562290 -17.332514
v -8.213069 -15.189598 -9.864169
v -0.109843 -8.575302 -4.252340
v -4.591478 -14.026772 1.097323
v -10.675915 -11.571981 -15.625937
v -11.756736 -4.744076 -17.901289
v -24.871750 -0.665714 -11.015246
v -20.898409 -10.555886 -24.023540
v -10.545295 -13.150402 13.370585
v -14.944558 -16.174675 -1.282909
v -23.415968 -8.107144 -5.222843
v -16.125706 -7.209493 -23.049271
v -13.849852 -17.164951 -33.336174
v -16.543343 -31.328917 -22.920090
v -10.676984 -11.108739 -31.611288
v -13.224815 -28.620333 -17.286623
v -8.470654 -16.073788 -26.216452
v -13.971073 -21.962204 -17.059114
v -14.064339 -14.665009 -15.639735
v -24.839613 1.054828 1.576848
v -18.682953 8.792819 -11.510219
v -20.780910 -25.929375 -16.969595
v -17.329523 -31.063360 -7.525251
v -12.762781 -29.990879 0.628654
v -25.066938 -26.480253 12.826123
v -24.044949 -33.672497 27.550610
v -31.211845 -34.408176 24.236908
v -30.535723 -34.776360 18.220673
v -20.555449 -34.390419 1.911290
v -20.377378 -25.943941 -6.297318
v -18.403196 -16.668888 -25.167089
v -17.658260 -23.770367 -2.385368
v -18.252525 -31.969845 21.229563
v -15.895355 -24.611311 12.084619
v -15.127620 -31.329798 25.200415
v -3.943995 -12.567533 12.819059
v -8.326697 -31.687927 11.967993
v -24.805321 -33.286579 19.465252
v -3.882587 -31.130890 13.712525
v 0.010866 -11.269668 0.207216
v 0.318586 -11.090462 0.057556
v 0.757368 -9.279897 -8.838327
v 0.439156 -9.177058 -8.645014
v -4.287965 -10.212410 -4.632422
v -4.112276 -10.140261 -4.296071
v 4.348958 -10.388309 -3.772078
v 4.178463 -10.181576 -4.050282
v -4.661626 -12.431854 -0.678723
v -4.427809 -12.721289 -0.098250
v 4.472506 -12.532649 -0.679621
v 4.974608 -12.618423 -1.144300
v 4.831064 -11.002274 -8.440103
v 4.516421 -11.049968 -9.051754
v -4.583099 -10.835608 -8.756716
v -5.119700 -11.073309 -8.394852
v 4.710240 -16.734386 2.992120
v 4.543001 -16.100864 2.844027
v -4.527787 -11.853191 -12.205111
v -4.144050 -11.408891 -11.878617
v -7.744595 -14.838890 -0.298900
v -7.403342 -14.313087 -0.540412
v 8.164412 -13.926078 -8.726658
v 7.921035 -13.501585 -8.266411
v -2.146353 -17.586891 3.442528
v -2.161181 -16.966606 3.240275
v 9.096948 -14.707083 -3.146030
v 8.753014 -14.215561 -2.889112
v 3.451324 -11.854360 -13.121539
v 3.334596 -11.470591 -12.606775
v -8.873137 -11.774481 -7.293250
v -8.324511 -11.446201 -7.162373
v -7.764647 -10.119273 14.054513
vn 0.3629 0.1870 0.9129
vn -0.3558 -0.0142 0.9344
vn -0.4765 -0.0757 0.8759
vn -0.0900 -0.1499 0.9846
vn 0.1885 0.6369 0.7475
vn -0.0436 -0.8699 -0.4912
vn 0.2958 -0.3735 0.8792
vn 0.1559 -0.6740 0.7221
vn -0.5340 -0.4977 -0.6834
vn 0.2334 -0.9704 -0.0614
vn -0.7093 -0.7031 0.0502
vn -0.5198 -0.5453 -0.6576
vn -0.3000 -0.9303 -0.2110
vn 0.5631 -0.8139 0.1431
vn 0.0504 -0.1412 0.9887
vn -0.1581 -0.0158 -0.9873
vn 0.5290 0.7818 -0.3299
vn 0.9037 -0.0808 0.4204
vn 0.8897 0.4556 -0.0301
vn 0.0523 0.9602 -0.2743
vn 0.9356 -0.3241 -0.1397
vn -0.2249 0.7230 -0.6532
vn 0.0603 -0.0914 -0.9940
vn 0.0506 -0.8653 -0.4988
vn -0.6091 0.5113 -0.6063
vn -0.9679 -0.2368 0.0842
vn -0.9873 -0.0840 -0.1347
vn -0.0277 0.3643 0.9309
vn 0.9708 0.1201 -0.2075
vn 0.7740 -0.3778 0.5082
vn -0.3221 0.9392 0.1188
vn 0.9880 0.1532 0.0185
vn 0.8302 -0.5215 -0.1969
vn -0.7426 -0.5550 -0.3748
vn 0.2010 -0.3099 0.9293
vn 0.2166 -0.6238 0.7510
vn 0.5249 -0.2880 0.8009
vn 0.4611 0.8617 0.2116
vn 0.8336 -0.5356 -0.1348
vn -0.0640 -0.0850 0.9943
vn -0.0589 -0.5258 0.8486
vn -0.2112 0.9325 0.2928
vn -0.9694 -0.1577 0.1882
vn -0.1079 -0.9598 -0.2591
vn -0.3135 0.2143 0.9251
vn 0.2484 -0.2528 0.9351
vn 0.8838 -0.0438 0.4657
vn 0.2851 -0.6705 0.6850
vn 0.1576 -0.8898 -0.4282
vn -0.3411 0.8338 0.4340
vn -0.0424 -0.9826 -0.1806
vn -0.7566 0.2776 0.5921
vn -0.3946 0.9095 -0.1306
vn -0.7812 0.6223 0.0493
vn 0.0326 0.4914 -0.8703
vn 0.2454 -0.9449 -0.2168
vn -0.0105 -0.9676 -0.2522
vn 0.4770 -0.5737 -0.6658
vn 0.5786 -0.5279 -0.6217
vn 0.2819 0.1477 -0.9480
vn -0.9571 0.0643 -0.2824
vn -0.9168 0.0488 -0.3962
vn -0.4065 -0.5209 0.7506
vn -0.5073 -0.8582 0.0785
vn -0.8909 -0.4482 0.0733
vn 0.7038 0.6826 -0.1966
vn -0.0583 -0.2472 -0.9672
vn -0.0737 -0.8437 -0.5318
vn 0.4787 0.5747 -0.6638
vn 0.8873 -0.4607 -0.0201
vn 0.9933 -0.0593 -0.0989
vn 0.4280 0.5476 0.7190
vn -0.0953 -0.9668 0.2372
vn -0.9434 0.0004 0.3315
vn -0.5132 0.5925 -0.6209
vn -0.9952 0.0946 -0.0242
vn -0.2491 -0.9456 -0.2092
vn 0.9220 -0.1041 -0.3729
vn -0.5751 0.8083 0.1261
vn -0.2402 -0.2870 0.9273
vn -0.4760 -0.2147 0.8528
vn -0.7911 -0.6017 -0.1097
vn -0.2050 -0.9357 -0.2872
vn -0.9448 0.2850 -0.1613
vn -0.9750 -0.1977 -0.1015
vn 0.0642 0.9979 0.0086
vn 0.2192 -0.5633 0.7966
vn 0.1978 0.9418 0.2717
vn 0.0855 -0.1079 0.9905
vn 0.0784 0.0539 0.9955
vn 0.2257 -0.8958 0.3829
vn -0.1302 -0.8727 0.4706
vn 0.8357 -0.2022 0.5105
vn -0.0532 -0.1731 0.9835
vt 0.151694 0.541735
vt 0.155597 0.566791
vt 0.100000 0.586669
vt 0.134065 0.774036
vt 0.110890 0.702318
vt 0.159306 0.755597
vt 0.100000 0.720494
vt 0.109407 0.611761
vt 0.639045 0.333433
vt 0.555456 0.307846
vt 0.600318 0.210360
vt 0.519516 0.532671
vt 0.519516 0.734381
vt 0.472641 0.506339
vt 0.629384 0.534258
vt 0.555456 0.454073
vt 0.636598 0.471646
vt 0.539994 0.897791
vt 0.539994 0.984762
vt 0.521114 0.955349
vt 0.596977 0.858666
vt 0.648539 0.878730
vt 0.603939 0.917823
vt 0.877026 0.548081
vt 0.889034 0.568485
vt 0.866842 0.604717
vt 0.284567 0.853441
vt 0.319458 0.890694
vt 0.284567 0.945150
vt 0.889034 0.660335
vt 0.894840 0.852858
vt 0.894840 0.956881
vt 0.871028 0.906147
vt 0.407040 0.199574
vt 0.432416 0.319926
vt 0.370672 0.206942
vt 0.363567 0.256489
vt 0.453569 0.277251
vt 0.578418 0.440753
vt 0.496717 0.334864
vt 0.682254 0.498455
vt 0.665194 0.619235
vt 0.662347 0.528288
vt 0.506828 0.223381
vt 0.653421 0.720626
vt 0.663569 0.454073
vt 0.555456 0.604060
vt 0.467997 0.730436
vt 0.402310 0.653574
vt 0.670067 0.277297
vt 0.225517 0.983136
vt 0.189013 0.778803
vt 0.225517 0.774036
vt 0.487209 0.417932
vt 0.534487 0.353629
vt 0.393173 0.733920
vt 0.347575 0.623711
vt 0.339331 0.760407
vt 0.339331 0.541735
vt 0.555456 -0.000000
vt 0.362760 0.563354
vt 0.812174 0.143421
vt 0.786185 0.000000
vt 0.840350 0.121491
vt 0.786185 0.953304
vt 0.828920 0.898433
vt 0.817220 0.992904
vt 0.596977 0.940533
vt 0.617204 0.917823
vt 0.617204 0.967488
vt 0.824724 0.292452
vt 0.786185 0.852858
vt 0.554522 0.997710
vt 0.539994 0.971622
vt 0.554522 0.897791
vt 0.554180 0.778793
vt 0.554180 0.897791
vt 0.521114 0.843921
vt 0.234081 0.917241
vt 0.234081 0.989127
vt 0.225518 0.965594
vt 0.895259 0.180507
vt 0.884267 0.074944
vt 0.895259 -0.000000
vt 0.738150 0.454073
vt 0.759241 0.530876
vt 0.682253 0.582131
vt 0.721844 0.594033
vt 0.716888 0.710801
vt 0.555456 0.407316
vt 0.848629 -0.000000
vt 0.877222 0.040922
vt 0.840350 0.060991
vt 0.873230 0.083514
vt 0.682253 0.929394
vt 0.718989 0.891219
vt 0.718989 0.948987
vt 0.794579 0.258078
vt 0.798131 0.161077
vt 0.786185 0.000000
vt 0.782909 0.117589
vt 0.740669 0.139256
vt 0.861561 0.173001
vt 0.759241 0.682611
vt 0.780371 0.601099
vt 0.780371 0.732417
vt 0.882734 0.344586
vt 0.846204 0.343196
vt 0.758830 0.322823
vt 0.734489 0.411810
vt 0.716097 0.334378
vt 0.786185 0.302578
vt 0.782347 0.370005
vt 0.355527 0.927231
vt 0.339331 0.821907
vt 0.355527 0.760407
vt 0.884267 0.416739
vt 0.899945 0.457176
vt 0.884267 0.511920
vt 0.759241 0.891219
vt 0.673780 0.784250
vt 0.673780 0.890838
vt 0.648539 0.824024
vt 0.554180 0.581311
vt 0.519516 0.616701
vt 0.519516 0.417933
vt 0.743824 0.189685
vt 0.866496 0.425148
vt 0.840350 0.500191
vt 0.884267 0.451034
vt 0.786185 0.439383
vt 0.829716 0.439121
vt 0.670067 0.252077
vt 0.759241 0.809673
vt 0.782614 0.732417
vt 0.782614 0.849385
vt 0.805044 0.548081
vt 0.694961 0.352255
vt 0.408706 0.469749
vt 0.221509 0.768176
vt 0.184351 0.754328
vt 0.207888 0.741320
vt 0.243290 0.608185
vt 0.236920 0.649500
vt 0.224499 0.612164
vt 0.208146 0.587472
vt 0.438292 0.068817
vt 0.481382 0.141373
vt 0.425710 0.138451
vt 0.648539 0.784250
vt 0.618395 0.800707
vt 0.100000 0.774036
vt 0.152490 0.805590
vt 0.100000 0.937606
vt 0.144153 0.408548
vt 0.115778 0.352878
vt 0.181667 0.347680
vt 0.424908 0.417932
vt 0.694424 0.411810
vt 0.693035 0.453358
vt 0.670067 0.411810
vt 0.510857 0.102266
vt 0.128141 0.226713
vt 0.243290 0.853441
vt 0.284567 0.887259
vt 0.265150 0.946703
vt 0.243290 0.953421
vt 0.305188 0.961945
vt 0.366537 0.077126
vt 0.750997 0.943990
vt 0.718989 0.893917
vt 0.750997 0.891219
vt 0.619500 0.726755
vt 0.100000 0.192819
vt 0.148222 0.108203
vt 0.186899 0.164478
vt 0.180107 0.245042
vt 0.784315 0.438136
vt 0.784315 0.601099
vt 0.779888 0.480256
vt 0.363567 0.563642
vt 0.238050 0.181306
vt 0.218160 0.292591
vt 0.561436 0.784249
vt 0.285247 0.076189
vt 0.260918 0.242704
vt 0.261108 0.080379
vt 0.785150 0.950751
vt 0.759241 0.950751
vt 0.779052 0.849386
vt 0.189013 0.845244
vt 0.185660 0.920162
vt 0.463014 -0.000000
vt 0.472998 0.873091
vt 0.470772 0.966987
vt 0.470772 0.734381
vt 0.275787 0.007685
vt 0.309080 0.000000
vt 0.596977 0.822044
vt 0.574537 0.908857
vt 0.581492 0.784250
vt 0.309242 0.541735
vt 0.258395 0.689707
vt 0.243290 0.640114
vt 0.503595 0.943868
vt 0.323158 0.703256
vt 0.318092 0.604182
vt 0.339331 0.701396
vt 0.520792 0.853419
vt 0.289038 0.691228
vt 0.363567 0.111824
vt 0.342868 0.159009
vt 0.307460 0.073348
vt 0.313312 0.152669
vt 0.281274 0.156313
vt 0.313284 0.287438
vt 0.331513 0.255143
vt 0.555456 0.834724
vt 0.555777 0.919728
vt 0.339331 0.555214
vt 0.554180 0.745699
vt 0.524280 0.778793
vt 0.524280 0.616701
vt 0.254671 0.853441
vt 0.596977 0.966110
vt 0.363567 0.961547
vt 0.402638 0.818694
vt 0.420914 0.877765
vt 0.470772 0.734381
vt 0.812637 0.784642
vt 0.843850 0.763389
vt 0.833335 0.839992
vt 0.323576 0.428487
vt 0.363567 0.487940
vt 0.357290 0.541735
vt 0.786185 0.805534
vt 0.795818 0.852858
vt 0.225517 0.917241
vt 0.225517 0.774036
vt 0.240331 0.846647
vt 0.866842 0.720265
vt 0.887308 0.660335
vt 0.887308 0.781966
vt 0.794374 0.634875
vt 0.648539 0.890838
vt 0.680956 0.942976
vt 0.648539 0.945533
vt 0.555456 0.057762
vt 0.460675 0.809756
vt 0.470772 0.946010
vt 0.900000 0.180507
vt 0.900000 0.296482
vt 0.884267 0.269242
vt 0.779888 0.454073
vt 0.779888 0.601099
vt 0.759241 0.490027
vt 0.362164 0.760407
vt 0.362164 0.934654
vt 0.355527 0.861907
vt 0.866842 0.644575
vt 0.786185 0.548081
vt 0.348571 0.250250
vt 0.335599 0.950878
vt 0.319458 0.981793
vt 0.319458 0.853441
vt 0.828920 0.988923
vt 0.828920 0.852858
vt 0.871028 0.886681
vt 0.865376 0.776129
vt 0.898011 0.380126
vt 0.884267 0.416739
vt 0.884267 0.296482
s 1
usemtl Material.001
f 5/1/5 4/2/4 1/3/1
f 8/4/8 2/5/2 15/6/15
f 7/7/7 3/8/3 2/5/2
f 1/3/1 4/2/4 3/8/3
f 8/4/8 7/7/7 2/5/2
f 3/8/3 7/7/7 1/3/1
f 18/9/18 14/10/14 21/11/21
f 1/12/1 19/13/19 5/14/5
f 16/15/16 17/16/17 22/17/22
f 6/18/6 13/19/13 11/20/11
f 57/21/57 6/22/6 11/23/11
f 11/24/11 13/25/13 12/26/12
f 12/27/12 51/28/51 58/29/58
f 13/25/13 51/30/51 12/26/12
f 11/31/11 58/32/58 57/33/57
f 51/34/51 14/35/14 8/36/8
f 8/36/8 14/35/14 7/37/7
f 14/35/14 51/34/51 13/38/13
f 18/9/18 7/39/7 14/10/14
f 14/35/14 13/38/13 10/40/10
f 10/41/10 6/42/6 9/43/9
f 10/40/10 13/38/13 6/44/6
f 9/43/9 6/42/6 59/45/59
f 9/43/9 59/45/59 16/15/16
f 18/9/18 1/46/1 7/39/7
f 16/15/16 55/47/55 17/16/17
f 5/14/5 19/13/19 17/48/17
f 17/48/17 20/49/20 5/14/5
f 19/50/19 1/46/1 18/9/18
f 19/50/19 18/9/18 21/11/21
f 22/51/22 17/52/17 19/53/19
f 21/54/21 14/35/14 10/40/10
f 21/54/21 10/40/10 30/55/30
f 17/48/17 55/56/55 20/49/20
f 22/57/22 19/58/19 23/59/23
f 19/50/19 21/11/21 23/60/23
f 22/57/22 23/59/23 25/61/25
f 26/62/26 23/63/23 24/64/24
f 27/65/27 22/66/22 25/67/25
f 25/68/25 23/69/23 27/70/27
f 26/62/26 24/64/24 34/71/34
f 9/72/9 22/66/22 27/65/27
f 10/73/10 9/74/9 27/75/27
f 10/76/10 27/77/27 26/78/26
f 10/79/10 26/80/26 28/81/28
f 21/82/21 29/83/29 23/84/23
f 23/85/23 29/86/29 24/87/24
f 24/87/24 29/86/29 32/88/32
f 24/87/24 32/88/32 33/89/33
f 21/54/21 30/55/30 29/90/29
f 29/91/29 30/92/30 32/93/32
f 30/92/30 28/94/28 32/93/32
f 30/95/30 10/96/10 28/97/28
f 31/98/31 28/99/28 26/62/26
f 24/100/24 33/101/33 34/102/34
f 26/62/26 34/71/34 31/98/31
f 32/93/32 28/94/28 31/103/31
f 27/104/27 23/105/23 26/106/26
f 31/103/31 42/107/42 38/108/38
f 36/109/36 35/110/35 41/111/41
f 39/112/39 37/113/37 36/109/36
f 35/114/35 36/115/36 38/116/38
f 38/117/38 36/118/36 37/119/37
f 32/88/32 38/120/38 33/89/33
f 38/121/38 37/122/37 39/123/39
f 38/124/38 39/125/39 33/126/33
f 36/109/36 41/111/41 39/112/39
f 39/112/39 41/111/41 44/127/44
f 38/108/38 42/107/42 41/128/41
f 38/108/38 41/128/41 35/129/35
f 40/130/40 41/128/41 42/107/42
f 42/131/42 31/98/31 43/132/43
f 43/132/43 31/98/31 34/71/34
f 43/133/43 34/102/34 44/127/44
f 44/127/44 33/101/33 39/112/39
f 44/127/44 34/102/34 33/101/33
f 31/103/31 38/108/38 32/93/32
f 12/134/12 58/135/58 11/136/11
f 40/137/40 42/131/42 43/132/43
f 40/138/40 43/133/43 41/111/41
f 43/133/43 44/127/44 41/111/41
f 16/15/16 22/17/22 9/43/9
f 5/14/5 20/49/20 50/139/50
f 63/140/63 15/6/15 90/141/90
f 63/140/63 90/141/90 126/142/94
f 45/143/45 47/144/47 46/145/46
f 46/145/46 48/146/48 45/143/45
f 45/143/45 48/146/48 5/1/5
f 64/147/64 56/148/56 49/149/49
f 59/150/59 6/22/6 56/151/56
f 45/152/45 52/153/52 63/154/63
f 45/155/45 50/156/50 52/157/52
f 45/158/45 5/14/5 50/139/50
f 59/159/59 56/160/56 73/161/73
f 64/147/64 73/162/73 56/148/56
f 52/157/52 50/156/50 53/163/53
f 57/21/57 56/151/56 6/22/6
f 56/164/56 57/165/57 58/166/58
f 56/164/56 58/166/58 49/167/49
f 49/168/49 58/29/58 51/28/51
f 51/34/51 63/169/63 64/147/64
f 64/147/64 49/149/49 51/34/51
f 63/169/63 51/34/51 8/36/8
f 5/1/5 48/146/48 4/2/4
f 59/170/59 66/171/66 60/172/60
f 60/173/60 55/47/55 16/15/16
f 59/45/59 60/173/60 16/15/16
f 53/163/53 20/174/20 55/175/55
f 75/176/75 54/177/54 53/163/53
f 63/140/63 126/142/94 47/144/47
f 45/178/45 63/179/63 47/180/47
f 75/176/75 53/163/53 55/175/55
f 50/139/50 20/49/20 53/181/53
f 54/177/54 61/182/61 74/183/74
f 53/163/53 54/177/54 52/157/52
f 55/47/55 60/173/60 75/184/75
f 74/183/74 62/185/62 65/186/65
f 74/183/74 61/182/61 62/185/62
f 75/176/75 66/187/66 61/182/61
f 60/188/60 66/189/66 75/190/75
f 74/191/74 63/154/63 52/153/52
f 74/191/74 65/192/65 63/154/63
f 63/169/63 65/193/65 64/147/64
f 75/176/75 61/182/61 54/177/54
f 66/194/66 69/195/69 61/196/61
f 61/182/61 69/197/69 62/185/62
f 69/197/69 67/198/67 62/185/62
f 70/199/70 77/200/77 68/201/68
f 67/202/67 70/203/70 68/204/68
f 71/205/71 69/195/69 66/194/66
f 73/206/73 71/207/71 59/208/59
f 59/209/59 71/205/71 66/194/66
f 73/206/73 72/210/72 71/207/71
f 67/198/67 68/211/68 76/212/76
f 62/185/62 67/198/67 85/213/85
f 67/198/67 76/212/76 85/213/85
f 85/213/85 72/214/72 73/215/73
f 65/193/65 73/162/73 64/147/64
f 76/212/76 86/216/86 72/214/72
f 76/212/76 84/217/84 86/216/86
f 76/218/76 77/200/77 84/219/84
f 71/207/71 70/203/70 67/202/67
f 68/201/68 77/200/77 76/218/76
f 85/213/85 76/212/76 72/214/72
f 72/210/72 70/203/70 71/207/71
f 69/220/69 71/207/71 67/202/67
f 86/221/86 78/222/78 72/223/72
f 72/210/72 78/224/78 70/203/70
f 70/199/70 78/225/78 77/200/77
f 86/226/86 79/227/79 88/228/88
f 79/227/79 80/229/80 88/228/88
f 92/230/92 87/231/87 80/232/80
f 79/233/79 82/234/82 81/235/81
f 82/236/82 92/230/92 81/237/81
f 80/238/80 79/239/79 92/240/92
f 92/241/92 79/242/79 81/243/81
f 79/233/79 86/216/86 84/217/84
f 82/236/82 83/244/83 92/230/92
f 73/245/73 62/246/62 85/247/85
f 65/193/65 62/248/62 73/162/73
f 52/157/52 54/177/54 74/183/74
f 88/228/88 80/229/80 87/249/87
f 88/228/88 93/250/93 86/226/86
f 78/251/78 93/252/93 91/253/91
f 86/254/86 93/255/93 78/256/78
f 91/257/91 77/258/77 78/259/78
f 91/260/91 83/244/83 77/261/77
f 79/233/79 84/217/84 82/234/82
f 82/234/82 84/217/84 77/262/77
f 82/236/82 77/261/77 83/244/83
f 87/263/87 89/264/89 88/265/88
f 63/140/63 8/4/8 15/6/15
f 89/266/89 91/267/91 88/268/88
f 87/231/87 91/260/91 89/269/89
f 87/231/87 92/230/92 91/260/91
f 83/244/83 91/260/91 92/230/92
f 91/270/91 93/271/93 88/272/88
l 104 105
l 108 109
l 95 94
l 99 98
l 110 111
l 114 115
l 118 119
l 122 123
l 102 103
l 106 107
l 97 96
l 101 100
l 112 113
l 116 117
l 120 121
l 124 125
o eyemon_low.001
v 3.525918 16.830950 5.846361
v 1.724910 -0.017607 19.171421
v 13.539896 4.714084 15.347024
v 17.689499 5.677964 6.406007
v 15.033714 -9.779774 6.123279
v 9.067293 -12.042728 12.717936
v 1.457635 -16.397528 5.763525
v -6.143807 -11.344564 15.460082
v -2.721656 0.785393 18.878950
v -11.512530 -12.866002 6.218897
v -17.870180 -0.278916 6.811441
v -15.002968 1.765679 13.548683
v -4.078788 12.918536 14.858748
v -10.743376 13.810100 5.923646
vn 0.2384 0.8686 -0.4344
vn 0.1346 -0.0268 0.9905
vn 0.6350 0.2579 0.7282
vn 0.8551 0.3113 -0.4145
vn 0.7694 -0.4754 -0.4266
vn 0.4412 -0.6677 0.5995
vn 0.0443 -0.8654 -0.4992
vn -0.3088 -0.6115 0.7285
vn -0.2026 0.0555 0.9777
vn -0.6162 -0.6575 -0.4336
vn -0.9153 -0.0728 -0.3962
vn -0.7603 0.0872 0.6437
vn -0.1744 0.6883 0.7042
vn -0.5571 0.6902 -0.4618
vt 0.389127 0.852456
vt 0.426577 0.517639
vt 0.549281 0.495480
vt 0.875319 0.626052
vt 0.598980 0.960420
vt 0.989828 0.652651
vt 0.916541 0.226090
vt 0.751896 0.163643
vt 0.541906 0.043472
vt 0.332142 0.182909
vt 0.183991 0.140925
vt 0.008549 0.488269
vt 0.087671 0.544690
vt 0.205216 0.877059
s 1
usemtl Material.002
f 139/273/107 135/274/103 128/275/96
f 139/273/107 128/275/96 129/276/97
f 127/277/95 139/273/107 129/276/97
f 127/277/95 129/276/97 130/278/98
f 130/278/98 129/276/97 131/279/99
f 131/279/99 129/276/97 132/280/100
f 129/276/97 128/275/96 132/280/100
f 131/279/99 132/280/100 133/281/101
f 128/275/96 135/274/103 134/282/102
f 132/280/100 128/275/96 134/282/102
f 133/281/101 132/280/100 134/282/102
f 133/281/101 134/282/102 136/283/104
f 136/283/104 134/282/102 137/284/105
f 131/279/99 127/277/95 130/278/98
f 134/282/102 135/274/103 138/285/106
f 137/284/105 134/282/102 138/285/106
f 138/285/106 135/274/103 139/273/107
f 138/285/106 139/273/107 140/286/108
f 137/284/105 138/285/106 140/286/108
f 136/283/104 137/284/105 140/286/108
f 133/281/101 136/283/104 127/277/95
f 140/286/108 139/273/107 127/277/95
f 136/283/104 140/286/108 127/277/95
f 133/281/101 127/277/95 131/279/99
